<svg width="700" height="600" viewBox="0 0 700 600" fill="none" xmlns="http://www.w3.org/2000/svg">
<g clip-path="url(#clip0)">
<path d="M305.794 346.415C305.794 346.415 308.58 412.302 305.794 422.973C303.011 433.646 276.911 451.196 250.175 463.731C250.175 463.731 284.579 510.791 351.805 509.393C419.029 508.005 431.428 480.184 442.101 464.868C442.101 464.868 395.501 446.674 394.273 424.861C393.042 403.048 394.273 346.415 394.273 346.415H305.794Z" fill="#EB9A7E"/>
<path d="M349.418 409.041C370.685 409.041 385.471 394.567 393.767 383.108C393.893 363.754 394.273 346.419 394.273 346.419H305.794C305.794 346.419 306.532 363.737 306.868 382.218C313.989 393.786 327.6 409.041 349.418 409.041Z" fill="#D87F66"/>
<path d="M291.134 281.954C291.134 281.954 287.825 271.226 273.577 273.221C259.805 275.156 263.45 311.214 275.371 316.585C287.298 321.951 291.797 303.713 291.797 303.713L291.134 281.954Z" fill="#EB9A7E"/>
<path d="M412.764 281.954C412.764 281.954 416.076 271.223 430.321 273.22C444.092 275.154 440.453 311.211 428.524 316.584C416.603 321.949 412.103 303.712 412.103 303.712L412.764 281.954Z" fill="#EB9A7E"/>
<path d="M424.798 279.953C418.654 356.474 397.21 393.216 351.95 393.216C306.679 393.216 284.951 362.877 279.099 279.953C274.778 218.721 306.868 180.85 351.95 180.85C397.032 180.85 429.902 216.388 424.798 279.953Z" fill="#EB9A7E"/>
<path d="M314.193 292.283C314.193 295.175 312.154 297.528 309.642 297.528C307.13 297.528 305.089 295.175 305.089 292.283C305.089 289.387 307.13 287.036 309.642 287.036C312.154 287.036 314.193 289.387 314.193 292.283Z" fill="#23252C"/>
<path d="M397.118 292.278C397.118 295.17 395.079 297.522 392.567 297.522C390.052 297.522 388.014 295.17 388.014 292.278C388.014 289.381 390.052 287.03 392.567 287.03C395.079 287.03 397.118 289.381 397.118 292.278Z" fill="#23252C"/>
<path d="M293.997 275.63C293.351 275.63 292.701 275.4 292.183 274.936C291.069 273.93 290.977 272.211 291.98 271.096C296.221 266.383 306.677 256.462 321.797 266.415C323.052 267.242 323.666 268.731 322.984 270.073C322.302 271.408 320.668 271.94 319.331 271.258C305.647 264.289 296.113 274.626 296.018 274.733C295.482 275.328 294.744 275.63 293.997 275.63Z" fill="#30333E"/>
<path d="M411.564 275.63C412.212 275.63 412.863 275.4 413.38 274.936C414.495 273.93 414.587 272.211 413.583 271.096C409.34 266.383 398.884 256.462 383.764 266.415C382.512 267.242 381.898 268.731 382.577 270.073C383.259 271.408 384.898 271.94 386.233 271.258C399.914 264.289 409.449 274.626 409.543 274.733C410.08 275.328 410.822 275.63 411.564 275.63Z" fill="#30333E"/>
<path d="M350.844 336.452C347.021 336.326 343.989 335.293 342.565 332.472C338.128 323.675 346.547 309.488 347.333 307.745C347.877 306.538 348.692 305.825 349.899 306.369C351.108 306.913 350.653 308.509 350.109 309.718C347.534 315.434 345.935 326.011 348.305 330.044C348.699 330.716 349.393 331.509 351.253 331.669C352.573 331.783 353.497 332.941 353.439 334.266C353.337 336.568 350.914 336.454 350.844 336.452Z" fill="#D87F66"/>
<path d="M295.409 295.272C295.409 295.272 304.883 273.735 298.635 253.172C298.635 253.172 313.772 273.904 295.409 295.272ZM303.031 370.942C306.218 344.764 295.409 327.966 295.409 327.966C315.772 346.515 302.959 371.549 303.031 370.942ZM347.363 163.617C305.137 133.278 254.1 155.256 252.468 183.38C251.346 202.681 265.938 225.858 256.902 235.834C213.085 284.219 269.403 277.821 246.418 329.379C234.649 355.786 256.902 381.797 256.902 381.797C285.128 381.797 305.091 378.083 305.091 378.083C328.645 325.348 277.634 328.571 300.258 295.272C319.242 267.32 302.792 261.291 301.256 249.138C293.997 191.749 323.268 210.834 323.268 210.834C350.033 190.269 345.013 212.629 365.772 226.861C386.596 241.142 414.28 245.913 414.28 245.913L423.026 281.417L428.672 277.821L433.107 237.849C446.95 140.138 347.363 163.617 347.363 163.617Z" fill="#30333E"/>
<path d="M351.126 356.559C338.943 356.559 330.674 350.712 330.159 350.339C329.109 349.578 328.875 348.115 329.636 347.068C330.396 346.023 331.859 345.786 332.908 346.543C333.629 347.061 349.793 358.319 369.974 346.427C371.094 345.767 372.53 346.139 373.183 347.249C373.841 348.369 373.468 349.805 372.353 350.463C364.599 355.03 357.35 356.559 351.126 356.559Z" fill="#D06767"/>
<path d="M408.606 317.551C408.606 317.551 422.462 280.119 429.412 273.124L430.643 273.092C430.643 273.092 414.383 307.94 410.705 321.32L408.606 317.551Z" fill="#D8C7C6"/>
<path d="M405.623 350.877C405.623 350.877 417.28 328.708 419.662 320.615C419.662 320.615 416.891 338.932 405.623 355.261V350.877Z" fill="#D8C7C6"/>
<path d="M288.185 321.317C288.185 321.317 287.33 316.553 293.176 314.133C299.023 311.715 336.899 299.013 346.588 299.013C356.28 299.013 398.446 312.411 407.75 315.767C411.123 316.981 411.575 319.847 411.52 325.558C411.5 327.812 410.487 395.633 346.588 393.193C282.694 390.743 288.185 321.317 288.185 321.317Z" fill="#EDEBEB"/>
<path d="M325.032 313.997C324.06 313.997 323.144 313.41 322.774 312.447C322.293 311.202 322.914 309.802 324.159 309.321C327.271 308.119 343.061 302.151 348.395 302.579C353.645 302.998 368.567 308.675 370.252 309.318C371.5 309.797 372.123 311.197 371.642 312.443C371.166 313.69 369.768 314.317 368.518 313.838C364.122 312.152 351.868 307.71 348.011 307.403C344.722 307.14 332.707 311.212 325.903 313.835C325.615 313.947 325.32 313.997 325.032 313.997Z" fill="#A09C9C"/>
<path d="M347.208 309.891C347.208 309.891 348.434 365.746 348.122 368.971C347.812 372.197 358.901 347.18 347.208 309.891Z" fill="#C1BDBD"/>
<path d="M337.773 346.103C337.773 339.141 332.13 333.497 325.166 333.497C318.204 333.497 312.558 339.141 312.558 346.103C312.558 353.064 318.204 358.708 325.166 358.708C332.13 358.708 337.773 353.064 337.773 346.103Z" fill="#C1BDBD"/>
<path d="M336.296 346.105C336.296 339.958 331.312 334.975 325.166 334.975C319.019 334.975 314.036 339.958 314.036 346.105C314.036 352.252 319.019 357.235 325.166 357.235C331.312 357.235 336.296 352.252 336.296 346.105Z" fill="white"/>
<path d="M316.508 351.345H333.407C333.407 351.345 331.553 356.621 324.959 356.561C318.362 356.5 316.508 351.345 316.508 351.345Z" fill="#E5D5B1"/>
<path d="M255.7 457.813L285.65 440.879C285.65 440.879 298.891 472.87 349.796 472.87C400.7 472.87 413.603 446.523 413.603 446.523L443.442 462.922C443.442 462.922 410.387 501.362 346.137 503.782C281.888 506.2 255.7 457.813 255.7 457.813Z" fill="#3B3448"/>
<path d="M265.759 450.285C265.759 450.285 292.773 491.95 346.137 491.95C399.024 491.95 429.868 453.849 429.868 453.849C429.868 453.849 517.232 487.649 533.225 504.319C542.597 514.085 552.538 516.416 556.881 552.048C558.972 569.209 574.622 582.315 574.622 611.346C574.622 636.157 586.364 666.869 593.574 688H108.504C108.504 688 118.718 649.652 119.257 610.405C119.564 588.055 141.837 575.777 146.138 544.995C149.79 518.863 154.512 512.252 162.153 504.21C190.108 474.775 265.759 450.285 265.759 450.285Z" fill="#F79637"/>
<path d="M200.035 687.998C200.035 687.998 193.987 572.68 188.745 549.696L191.163 687.998H200.035Z" fill="#C7680A"/>
<path d="M498.414 687.998C498.414 687.998 504.461 572.68 509.704 549.696L507.283 687.998H498.414Z" fill="#C7680A"/>
<path d="M167.509 97.2914L154.905 54.3786C154.565 53.31 154.177 52.5086 153.739 51.9743C153.302 51.44 152.574 51.0029 151.554 50.6629L150.679 50.3714V48.8414H169.477V50.3714L167.947 50.8814C166.829 51.2214 166.101 51.7071 165.761 52.3386C165.469 52.97 165.469 53.8443 165.761 54.9614L173.702 84.8329L182.372 58.9686L181.061 54.7429C180.721 53.7229 180.381 52.9457 180.041 52.4114C179.701 51.8286 179.142 51.3671 178.365 51.0271L176.762 50.3714V48.8414H194.612V50.3714L192.572 51.0271C191.601 51.3671 191.042 51.8529 190.897 52.4843C190.751 53.1157 190.848 53.9657 191.188 55.0343L200.368 85.27L208.819 55.4714C209.159 54.3543 209.257 53.3829 209.111 52.5571C208.965 51.7314 208.334 51.1486 207.217 50.8086L205.759 50.3714V48.8414H216.542V50.3714L214.721 50.9543C213.749 51.2943 213.045 51.8043 212.608 52.4843C212.219 53.1157 211.879 53.9657 211.588 55.0343L199.639 97.2914H194.612L183.829 63.34L172.537 97.2914H167.509Z" fill="#2F2F37"/>
<path d="M235.551 60.9357C238.611 60.9357 241.233 61.5671 243.419 62.83C245.605 64.0929 247.281 65.8414 248.446 68.0757C249.661 70.2614 250.268 72.7871 250.268 75.6529C250.268 76.2843 250.243 76.8914 250.195 77.4743C250.146 78.0086 250.049 78.5186 249.903 79.0043H227.973C228.022 84.0071 228.945 87.6014 230.742 89.7871C232.588 91.9729 235.259 93.0657 238.756 93.0657C241.185 93.0657 243.152 92.6771 244.658 91.9C246.163 91.0743 247.548 89.9329 248.811 88.4757L249.976 89.5686C248.519 92.24 246.528 94.3286 244.002 95.8343C241.525 97.2914 238.562 98.02 235.113 98.02C231.665 98.02 228.629 97.2914 226.006 95.8343C223.383 94.3771 221.319 92.2886 219.813 89.5686C218.356 86.8 217.628 83.4971 217.628 79.66C217.628 75.6771 218.478 72.3014 220.178 69.5329C221.926 66.7643 224.161 64.6514 226.881 63.1943C229.649 61.6886 232.539 60.9357 235.551 60.9357ZM235.186 63.0486C233.778 63.0486 232.539 63.4614 231.471 64.2871C230.451 65.0643 229.625 66.4729 228.993 68.5129C228.411 70.5043 228.071 73.3214 227.973 76.9643H241.015C241.549 72.0586 241.355 68.5129 240.432 66.3271C239.509 64.1414 237.761 63.0486 235.186 63.0486ZM262.73 98.02C259.961 98.02 257.605 97.2429 255.663 95.6886C253.768 94.0857 252.821 91.8029 252.821 88.84C252.821 86.5086 253.938 84.3714 256.173 82.4286C258.455 80.4371 262.025 78.98 266.883 78.0571C267.708 77.8629 268.655 77.6929 269.724 77.5471C270.841 77.3529 271.934 77.1586 273.003 76.9643V71.7914C273.003 68.4886 272.59 66.2057 271.764 64.9429C270.938 63.68 269.627 63.0486 267.83 63.0486H267.611C266.494 63.0486 265.595 63.4129 264.915 64.1414C264.284 64.8214 263.871 65.9629 263.677 67.5657L263.458 68.5129C263.313 70.4557 262.803 71.8886 261.928 72.8114C261.054 73.6857 259.961 74.1229 258.65 74.1229C257.435 74.1229 256.415 73.7586 255.59 73.03C254.813 72.2529 254.424 71.2571 254.424 70.0429C254.424 68.0514 255.104 66.3757 256.464 65.0157C257.824 63.6557 259.621 62.6357 261.855 61.9557C264.138 61.2757 266.591 60.9357 269.214 60.9357C273.537 60.9357 276.84 61.98 279.123 64.0686C281.405 66.1571 282.547 69.5571 282.547 74.2686V90.5157C282.547 92.6043 283.543 93.6486 285.534 93.6486H287.21L287.938 94.45C287.064 95.5671 286.093 96.4171 285.024 97C283.955 97.6314 282.498 97.9471 280.653 97.9471C278.564 97.9471 276.888 97.4614 275.625 96.49C274.411 95.47 273.61 94.1343 273.221 92.4829C271.667 94.1343 270.137 95.47 268.631 96.49C267.125 97.51 265.158 98.02 262.73 98.02ZM266.955 93.3571C267.927 93.3571 268.85 93.1386 269.724 92.7014C270.598 92.2643 271.691 91.5357 273.003 90.5157V78.8586C271.74 79.0529 270.453 79.2957 269.141 79.5871C267.053 80.0729 265.353 80.9714 264.041 82.2829C262.778 83.5943 262.147 85.3671 262.147 87.6014C262.147 89.5443 262.584 91.0014 263.458 91.9729C264.381 92.8957 265.547 93.3571 266.955 93.3571ZM287.919 97V95.6157L289.012 95.2514C289.984 95.0086 290.639 94.5957 290.979 94.0129C291.368 93.43 291.562 92.6529 291.562 91.6814V70.3343C291.514 69.2657 291.319 68.4643 290.979 67.93C290.639 67.3471 289.984 66.9586 289.012 66.7643L287.919 66.4729V65.1614L299.795 60.9357L300.669 61.7371L301.325 68.1486V68.6586C302.054 67.2986 302.977 66.0357 304.094 64.87C305.211 63.7043 306.425 62.7571 307.737 62.0286C309.048 61.3 310.359 60.9357 311.671 60.9357C313.517 60.9357 314.901 61.4214 315.824 62.3929C316.747 63.3643 317.208 64.6029 317.208 66.1086C317.208 67.76 316.747 69.0229 315.824 69.8971C314.901 70.7229 313.784 71.1357 312.472 71.1357C310.529 71.1357 308.854 70.2614 307.445 68.5129L307.299 68.3671C306.814 67.7843 306.255 67.4686 305.624 67.42C305.041 67.3229 304.458 67.6143 303.875 68.2943C303.389 68.78 302.928 69.3629 302.491 70.0429C302.102 70.6743 301.738 71.4271 301.398 72.3014V91.39C301.398 92.3129 301.592 93.09 301.981 93.7214C302.369 94.3043 303.025 94.7171 303.948 94.96L306.134 95.6157V97H287.919ZM343.24 98.02C340.471 98.02 338.115 97.2429 336.173 95.6886C334.278 94.0857 333.331 91.8029 333.331 88.84C333.331 86.5086 334.448 84.3714 336.683 82.4286C338.965 80.4371 342.535 78.98 347.393 78.0571C348.218 77.8629 349.165 77.6929 350.234 77.5471C351.351 77.3529 352.444 77.1586 353.513 76.9643V71.7914C353.513 68.4886 353.1 66.2057 352.274 64.9429C351.448 63.68 350.137 63.0486 348.34 63.0486H348.121C347.004 63.0486 346.105 63.4129 345.425 64.1414C344.794 64.8214 344.381 65.9629 344.187 67.5657L343.968 68.5129C343.823 70.4557 343.313 71.8886 342.438 72.8114C341.564 73.6857 340.471 74.1229 339.16 74.1229C337.945 74.1229 336.925 73.7586 336.1 73.03C335.323 72.2529 334.934 71.2571 334.934 70.0429C334.934 68.0514 335.614 66.3757 336.974 65.0157C338.334 63.6557 340.131 62.6357 342.365 61.9557C344.648 61.2757 347.101 60.9357 349.724 60.9357C354.047 60.9357 357.35 61.98 359.633 64.0686C361.915 66.1571 363.057 69.5571 363.057 74.2686V90.5157C363.057 92.6043 364.053 93.6486 366.044 93.6486H367.72L368.448 94.45C367.574 95.5671 366.603 96.4171 365.534 97C364.465 97.6314 363.008 97.9471 361.163 97.9471C359.074 97.9471 357.398 97.4614 356.135 96.49C354.921 95.47 354.12 94.1343 353.731 92.4829C352.177 94.1343 350.647 95.47 349.141 96.49C347.635 97.51 345.668 98.02 343.24 98.02ZM347.465 93.3571C348.437 93.3571 349.36 93.1386 350.234 92.7014C351.108 92.2643 352.201 91.5357 353.513 90.5157V78.8586C352.25 79.0529 350.963 79.2957 349.651 79.5871C347.563 80.0729 345.863 80.9714 344.551 82.2829C343.288 83.5943 342.657 85.3671 342.657 87.6014C342.657 89.5443 343.094 91.0014 343.968 91.9729C344.891 92.8957 346.057 93.3571 347.465 93.3571ZM383.194 97V95.5429L384.797 95.1057C385.574 94.8629 386.084 94.5229 386.327 94.0857C386.57 93.6 386.716 92.9686 386.764 92.1914V77.7657C386.764 76.1629 386.764 74.8029 386.764 73.6857C386.764 72.5686 386.74 71.2571 386.692 69.7514C386.692 68.9257 386.57 68.2943 386.327 67.8571C386.084 67.3714 385.55 67.0314 384.724 66.8371L383.194 66.4729V65.1614L394.997 60.9357L395.872 61.7371L396.382 66.6186C398.082 65.0643 399.976 63.7286 402.064 62.6114C404.153 61.4943 406.29 60.9357 408.476 60.9357C410.904 60.9357 412.799 61.4214 414.159 62.3929C415.519 63.3643 416.563 64.8457 417.292 66.8371C419.137 64.9914 421.177 63.5586 423.412 62.5386C425.646 61.47 427.856 60.9357 430.042 60.9357C433.344 60.9357 435.822 61.7614 437.473 63.4129C439.124 65.0643 439.95 67.6629 439.95 71.2086V92.2643C439.95 93.8186 440.63 94.79 441.99 95.1786L443.374 95.5429V97H426.982V95.5429L428.293 95.1786C429.604 94.7414 430.26 93.7457 430.26 92.1914V70.8443C430.26 68.7557 429.872 67.3471 429.094 66.6186C428.366 65.8414 427.152 65.4529 425.452 65.4529C424.14 65.4529 422.902 65.72 421.736 66.2543C420.57 66.7886 419.283 67.6143 417.874 68.7314C418.166 70.1886 418.312 71.8643 418.312 73.7586V92.2643C418.36 93.09 418.506 93.7457 418.749 94.2314C419.04 94.6686 419.574 94.9843 420.352 95.1786L421.59 95.5429V97H405.124V95.5429L406.654 95.1057C407.432 94.8629 407.942 94.5229 408.184 94.0857C408.476 93.6 408.622 92.9686 408.622 92.1914V70.9171C408.622 68.9257 408.257 67.5171 407.529 66.6914C406.8 65.8657 405.562 65.4529 403.813 65.4529C401.579 65.4529 399.174 66.5214 396.6 68.6586V92.2643C396.6 93.8671 397.28 94.8386 398.64 95.1786L399.879 95.5429V97H383.194ZM455.127 98.02C452.358 98.02 450.002 97.2429 448.059 95.6886C446.165 94.0857 445.218 91.8029 445.218 88.84C445.218 86.5086 446.335 84.3714 448.569 82.4286C450.852 80.4371 454.422 78.98 459.279 78.0571C460.105 77.8629 461.052 77.6929 462.121 77.5471C463.238 77.3529 464.331 77.1586 465.399 76.9643V71.7914C465.399 68.4886 464.987 66.2057 464.161 64.9429C463.335 63.68 462.024 63.0486 460.227 63.0486H460.008C458.891 63.0486 457.992 63.4129 457.312 64.1414C456.681 64.8214 456.268 65.9629 456.074 67.5657L455.855 68.5129C455.709 70.4557 455.199 71.8886 454.325 72.8114C453.451 73.6857 452.358 74.1229 451.047 74.1229C449.832 74.1229 448.812 73.7586 447.987 73.03C447.209 72.2529 446.821 71.2571 446.821 70.0429C446.821 68.0514 447.501 66.3757 448.861 65.0157C450.221 63.6557 452.018 62.6357 454.252 61.9557C456.535 61.2757 458.988 60.9357 461.611 60.9357C465.934 60.9357 469.237 61.98 471.519 64.0686C473.802 66.1571 474.944 69.5571 474.944 74.2686V90.5157C474.944 92.6043 475.939 93.6486 477.931 93.6486H479.607L480.335 94.45C479.461 95.5671 478.489 96.4171 477.421 97C476.352 97.6314 474.895 97.9471 473.049 97.9471C470.961 97.9471 469.285 97.4614 468.022 96.49C466.808 95.47 466.007 94.1343 465.618 92.4829C464.064 94.1343 462.534 95.47 461.028 96.49C459.522 97.51 457.555 98.02 455.127 98.02ZM459.352 93.3571C460.324 93.3571 461.247 93.1386 462.121 92.7014C462.995 92.2643 464.088 91.5357 465.399 90.5157V78.8586C464.137 79.0529 462.849 79.2957 461.538 79.5871C459.449 80.0729 457.749 80.9714 456.438 82.2829C455.175 83.5943 454.544 85.3671 454.544 87.6014C454.544 89.5443 454.981 91.0014 455.855 91.9729C456.778 92.8957 457.944 93.3571 459.352 93.3571ZM493.134 98.02C490.803 98.02 488.69 97.7529 486.796 97.2186C484.95 96.7329 483.177 96.0286 481.477 95.1057V86.5086H483.444L485.63 90.6614C486.553 92.4586 487.597 93.7943 488.763 94.6686C489.977 95.5429 491.507 95.98 493.353 95.98C495.636 95.98 497.457 95.4943 498.817 94.5229C500.177 93.5029 500.857 92.1429 500.857 90.4429C500.857 88.8886 500.347 87.6257 499.327 86.6543C498.307 85.6829 496.486 84.7843 493.863 83.9586L490.657 82.9386C487.791 82.0643 485.508 80.7529 483.808 79.0043C482.157 77.2071 481.331 74.9729 481.331 72.3014C481.331 70.2129 481.89 68.3186 483.007 66.6186C484.124 64.87 485.751 63.4857 487.888 62.4657C490.026 61.4457 492.624 60.9357 495.684 60.9357C497.676 60.9357 499.497 61.1786 501.148 61.6643C502.848 62.1014 504.5 62.7329 506.103 63.5586L505.666 71.3543H503.771L501.513 67.2014C500.736 65.6471 499.934 64.5786 499.108 63.9957C498.331 63.3643 497.117 63.0486 495.466 63.0486C493.717 63.0486 492.163 63.51 490.803 64.4329C489.491 65.3071 488.836 66.5457 488.836 68.1486C488.836 69.6543 489.394 70.8929 490.511 71.8643C491.628 72.7871 493.426 73.6614 495.903 74.4871L499.036 75.4343C502.581 76.5514 505.107 78.0329 506.613 79.8786C508.118 81.7243 508.871 83.9343 508.871 86.5086C508.871 89.9571 507.487 92.75 504.718 94.8871C501.998 96.9757 498.137 98.02 493.134 98.02ZM509.813 97V95.6157L510.906 95.2514C512.557 94.7657 513.383 93.5757 513.383 91.6814V53.9414C513.383 52.97 513.188 52.2414 512.8 51.7557C512.411 51.2214 511.731 50.8329 510.76 50.59L509.813 50.2986V48.9143L522.563 45.8543L523.51 46.51L523.218 56.7829V91.6814C523.218 93.6243 524.044 94.8386 525.696 95.3243L526.716 95.6157V97H509.813ZM536.478 97L523.291 78.7857L536.187 66.8371C536.818 66.3029 537.183 65.72 537.28 65.0886C537.377 64.4086 536.964 63.9471 536.041 63.7043L534.876 63.4129V62.0286H546.241V63.4129L544.128 63.9229C543.06 64.2143 542.186 64.6271 541.506 65.1614C540.826 65.6471 540.024 66.3029 539.101 67.1286L531.087 74.6329L543.473 91.6086C544.25 92.6286 544.954 93.43 545.586 94.0129C546.217 94.5471 547.067 95.0086 548.136 95.3971L548.864 95.6157V97H536.478Z" fill="#73738C"/>
<rect width="67" height="6" transform="matrix(1 0 0 -1 148 110)" fill="#F79637"/>
</g>
<defs>
<clipPath id="clip0">
<rect width="700" height="600" fill="white"/>
</clipPath>
</defs>
</svg>
